<?xml version="1.0" encoding="utf-8"?>
<svg version="1.1" xmlns:xlink="http://www.w3.org/1999/xlink" width="80px" height="35px" xmlns="http://www.w3.org/2000/svg">
  <g transform="matrix(1 0 0 1 -299 -115 )">
    <path d="M 299.5 120  A 4.5 4.5 0 0 1 304 115.5 L 374 115.5  A 4.5 4.5 0 0 1 378.5 120 L 378.5 145  A 4.5 4.5 0 0 1 374 149.5 L 304 149.5  A 4.5 4.5 0 0 1 299.5 145 L 299.5 120  Z " fill-rule="nonzero" fill="#f0f7ff" stroke="none" />
    <path d="M 299.5 120  A 4.5 4.5 0 0 1 304 115.5 L 374 115.5  A 4.5 4.5 0 0 1 378.5 120 L 378.5 145  A 4.5 4.5 0 0 1 374 149.5 L 304 149.5  A 4.5 4.5 0 0 1 299.5 145 L 299.5 120  Z " stroke-width="1" stroke="#409eff" fill="none" />
  </g>
</svg>