<?xml version="1.0" encoding="utf-8"?>
<svg version="1.1" xmlns:xlink="http://www.w3.org/1999/xlink" width="80px" height="35px" xmlns="http://www.w3.org/2000/svg">
  <g transform="matrix(1 0 0 1 -299 -115 )">
    <path d="M 300 120  A 4 4 0 0 1 304 116 L 374 116  A 4 4 0 0 1 378 120 L 378 145  A 4 4 0 0 1 374 149 L 304 149  A 4 4 0 0 1 300 145 L 300 120  Z " fill-rule="nonzero" fill="#f0f7ff" stroke="none" />
    <path d="M 299.5 120  A 4.5 4.5 0 0 1 304 115.5 L 374 115.5  A 4.5 4.5 0 0 1 378.5 120 L 378.5 145  A 4.5 4.5 0 0 1 374 149.5 L 304 149.5  A 4.5 4.5 0 0 1 299.5 145 L 299.5 120  Z " stroke-width="1" stroke="#7abbff" fill="none" stroke-opacity="0.996078431372549" />
  </g>
</svg>